<svg width="156" height="27" viewBox="0 0 156 27" fill="none" xmlns="http://www.w3.org/2000/svg">
<path d="M3.076 26.288C2.332 26.288 1.756 26.084 1.348 25.676C0.964 25.244 0.772 24.656 0.772 23.912V2.672C0.772 1.904 0.964 1.328 1.348 0.943999C1.756 0.535998 2.332 0.331998 3.076 0.331998C3.82 0.331998 4.384 0.535998 4.768 0.943999C5.176 1.328 5.38 1.904 5.38 2.672V11.852H5.452L15.784 1.484C16.168 1.1 16.552 0.811999 16.936 0.619998C17.32 0.427998 17.752 0.331998 18.232 0.331998C18.928 0.331998 19.42 0.511998 19.708 0.872C20.02 1.232 20.14 1.652 20.068 2.132C20.02 2.612 19.792 3.056 19.384 3.464L8.872 13.868L8.908 11.78L19.888 22.94C20.392 23.42 20.656 23.924 20.68 24.452C20.704 24.98 20.536 25.424 20.176 25.784C19.84 26.12 19.336 26.288 18.664 26.288C18.088 26.288 17.62 26.168 17.26 25.928C16.924 25.688 16.528 25.34 16.072 24.884L5.452 14.264H5.38V23.912C5.38 24.656 5.188 25.244 4.804 25.676C4.42 26.084 3.844 26.288 3.076 26.288ZM27.4275 26.288C26.7075 26.288 26.1555 26.096 25.7715 25.712C25.3875 25.304 25.1955 24.728 25.1955 23.984V2.6C25.1955 1.856 25.3875 1.292 25.7715 0.907999C26.1555 0.523998 26.7075 0.331998 27.4275 0.331998C28.1475 0.331998 28.6995 0.523998 29.0835 0.907999C29.4915 1.292 29.6955 1.856 29.6955 2.6V11.924H29.1915C29.7195 10.652 30.5355 9.692 31.6395 9.044C32.7675 8.372 34.0395 8.036 35.4555 8.036C36.8715 8.036 38.0355 8.3 38.9475 8.828C39.8595 9.356 40.5435 10.16 40.9995 11.24C41.4555 12.296 41.6835 13.64 41.6835 15.272V23.984C41.6835 24.728 41.4915 25.304 41.1075 25.712C40.7235 26.096 40.1715 26.288 39.4515 26.288C38.7315 26.288 38.1675 26.096 37.7595 25.712C37.3755 25.304 37.1835 24.728 37.1835 23.984V15.488C37.1835 14.12 36.9195 13.124 36.3915 12.5C35.8875 11.876 35.0955 11.564 34.0155 11.564C32.6955 11.564 31.6395 11.984 30.8475 12.824C30.0795 13.64 29.6955 14.732 29.6955 16.1V23.984C29.6955 25.52 28.9395 26.288 27.4275 26.288ZM54.9301 26.36C52.9381 26.36 51.2221 25.988 49.7821 25.244C48.3421 24.5 47.2261 23.444 46.4341 22.076C45.6661 20.708 45.2821 19.088 45.2821 17.216C45.2821 15.392 45.6541 13.796 46.3981 12.428C47.1661 11.06 48.2101 9.992 49.5301 9.224C50.8741 8.432 52.3981 8.036 54.1021 8.036C55.3501 8.036 56.4661 8.24 57.4501 8.648C58.4581 9.056 59.3101 9.644 60.0061 10.412C60.7261 11.18 61.2661 12.116 61.6261 13.22C62.0101 14.3 62.2021 15.524 62.2021 16.892C62.2021 17.324 62.0461 17.66 61.7341 17.9C61.4461 18.116 61.0261 18.224 60.4741 18.224H48.9181V15.632H59.0341L58.4581 16.172C58.4581 15.068 58.2901 14.144 57.9541 13.4C57.6421 12.656 57.1741 12.092 56.5501 11.708C55.9501 11.3 55.1941 11.096 54.2821 11.096C53.2741 11.096 52.4101 11.336 51.6901 11.816C50.9941 12.272 50.4541 12.932 50.0701 13.796C49.7101 14.636 49.5301 15.644 49.5301 16.82V17.072C49.5301 19.04 49.9861 20.516 50.8981 21.5C51.8341 22.46 53.2021 22.94 55.0021 22.94C55.6261 22.94 56.3221 22.868 57.0901 22.724C57.8821 22.556 58.6261 22.28 59.3221 21.896C59.8261 21.608 60.2701 21.488 60.6541 21.536C61.0381 21.56 61.3381 21.692 61.5541 21.932C61.7941 22.172 61.9381 22.472 61.9861 22.832C62.0341 23.168 61.9621 23.516 61.7701 23.876C61.6021 24.236 61.3021 24.548 60.8701 24.812C60.0301 25.34 59.0581 25.736 57.9541 26C56.8741 26.24 55.8661 26.36 54.9301 26.36ZM71.7778 26.36C69.7858 26.36 68.2858 25.796 67.2778 24.668C66.2698 23.516 65.7658 21.836 65.7658 19.628V2.6C65.7658 1.856 65.9578 1.292 66.3418 0.907999C66.7258 0.523998 67.2778 0.331998 67.9978 0.331998C68.7178 0.331998 69.2698 0.523998 69.6538 0.907999C70.0618 1.292 70.2658 1.856 70.2658 2.6V19.412C70.2658 20.516 70.4938 21.332 70.9498 21.86C71.4298 22.388 72.1018 22.652 72.9658 22.652C73.1578 22.652 73.3378 22.652 73.5058 22.652C73.6738 22.628 73.8418 22.604 74.0098 22.58C74.3458 22.532 74.5738 22.628 74.6938 22.868C74.8138 23.084 74.8738 23.54 74.8738 24.236C74.8738 24.836 74.7538 25.304 74.5138 25.64C74.2738 25.976 73.8778 26.18 73.3258 26.252C73.0858 26.276 72.8338 26.3 72.5698 26.324C72.3058 26.348 72.0418 26.36 71.7778 26.36ZM83.0579 26.36C81.7859 26.36 80.6459 26.12 79.6379 25.64C78.6539 25.136 77.8739 24.464 77.2979 23.624C76.7459 22.784 76.4699 21.836 76.4699 20.78C76.4699 19.484 76.8059 18.464 77.4779 17.72C78.1499 16.952 79.2419 16.4 80.7539 16.064C82.2659 15.728 84.2939 15.56 86.8379 15.56H88.6379V18.152H86.8739C85.3859 18.152 84.1979 18.224 83.3099 18.368C82.4219 18.512 81.7859 18.764 81.4019 19.124C81.0419 19.46 80.8619 19.94 80.8619 20.564C80.8619 21.356 81.1379 22.004 81.6899 22.508C82.2419 23.012 83.0099 23.264 83.9939 23.264C84.7859 23.264 85.4819 23.084 86.0819 22.724C86.7059 22.34 87.1979 21.824 87.5579 21.176C87.9179 20.528 88.0979 19.784 88.0979 18.944V14.804C88.0979 13.604 87.8339 12.74 87.3059 12.212C86.7779 11.684 85.8899 11.42 84.6419 11.42C83.9459 11.42 83.1899 11.504 82.3739 11.672C81.5819 11.84 80.7419 12.128 79.8539 12.536C79.3979 12.752 78.9899 12.812 78.6299 12.716C78.2939 12.62 78.0299 12.428 77.8379 12.14C77.6459 11.828 77.5499 11.492 77.5499 11.132C77.5499 10.772 77.6459 10.424 77.8379 10.088C78.0299 9.728 78.3539 9.464 78.8099 9.296C79.9139 8.84 80.9699 8.516 81.9779 8.324C83.0099 8.132 83.9459 8.036 84.7859 8.036C86.5139 8.036 87.9299 8.3 89.0339 8.828C90.1619 9.356 91.0019 10.16 91.5539 11.24C92.1059 12.296 92.3819 13.664 92.3819 15.344V23.984C92.3819 24.728 92.2019 25.304 91.8419 25.712C91.4819 26.096 90.9659 26.288 90.2939 26.288C89.6219 26.288 89.0939 26.096 88.7099 25.712C88.3499 25.304 88.1699 24.728 88.1699 23.984V22.256H88.4579C88.2899 23.096 87.9539 23.828 87.4499 24.452C86.9699 25.052 86.3579 25.52 85.6139 25.856C84.8699 26.192 84.0179 26.36 83.0579 26.36Z" fill="#1FD1A7"/>
<path d="M109.585 26.36C106.777 26.36 104.401 25.832 102.457 24.776C100.537 23.72 99.0734 22.22 98.0654 20.276C97.0574 18.332 96.5534 16.028 96.5534 13.364C96.5534 11.348 96.8414 9.536 97.4174 7.928C98.0174 6.32 98.8694 4.952 99.9734 3.824C101.101 2.672 102.469 1.796 104.077 1.196C105.685 0.571999 107.509 0.259999 109.549 0.259999C110.893 0.259999 112.237 0.427999 113.581 0.763999C114.949 1.076 116.233 1.616 117.433 2.384C117.841 2.648 118.105 2.972 118.225 3.356C118.369 3.74 118.393 4.136 118.297 4.544C118.201 4.928 118.021 5.264 117.757 5.552C117.493 5.84 117.157 6.02 116.749 6.092C116.365 6.164 115.933 6.068 115.453 5.804C114.541 5.276 113.617 4.892 112.681 4.652C111.745 4.412 110.701 4.292 109.549 4.292C107.773 4.292 106.273 4.652 105.049 5.372C103.825 6.068 102.901 7.088 102.277 8.432C101.677 9.776 101.377 11.42 101.377 13.364C101.377 16.316 102.085 18.56 103.501 20.096C104.917 21.632 107.017 22.4 109.801 22.4C110.761 22.4 111.733 22.304 112.717 22.112C113.701 21.92 114.661 21.656 115.597 21.32L114.697 23.372V15.704H110.737C110.137 15.704 109.669 15.548 109.333 15.236C109.021 14.924 108.865 14.504 108.865 13.976C108.865 13.424 109.021 13.004 109.333 12.716C109.669 12.428 110.137 12.284 110.737 12.284H116.677C117.277 12.284 117.733 12.452 118.045 12.788C118.381 13.1 118.549 13.556 118.549 14.156V22.904C118.549 23.432 118.441 23.876 118.225 24.236C118.033 24.596 117.709 24.86 117.253 25.028C116.197 25.412 114.985 25.736 113.617 26C112.249 26.24 110.905 26.36 109.585 26.36ZM131.485 26.36C129.661 26.36 128.077 25.988 126.733 25.244C125.389 24.5 124.345 23.444 123.601 22.076C122.857 20.684 122.485 19.052 122.485 17.18C122.485 15.764 122.689 14.504 123.097 13.4C123.529 12.272 124.141 11.312 124.933 10.52C125.725 9.704 126.673 9.092 127.777 8.684C128.881 8.252 130.117 8.036 131.485 8.036C133.309 8.036 134.893 8.408 136.237 9.152C137.581 9.896 138.625 10.952 139.369 12.32C140.113 13.688 140.485 15.308 140.485 17.18C140.485 18.596 140.269 19.868 139.837 20.996C139.429 22.124 138.829 23.096 138.037 23.912C137.245 24.704 136.297 25.316 135.193 25.748C134.089 26.156 132.853 26.36 131.485 26.36ZM131.485 22.94C132.373 22.94 133.153 22.724 133.825 22.292C134.497 21.86 135.013 21.224 135.373 20.384C135.757 19.52 135.949 18.452 135.949 17.18C135.949 15.26 135.541 13.832 134.725 12.896C133.909 11.936 132.829 11.456 131.485 11.456C130.597 11.456 129.817 11.672 129.145 12.104C128.473 12.512 127.945 13.148 127.561 14.012C127.201 14.852 127.021 15.908 127.021 17.18C127.021 19.076 127.429 20.516 128.245 21.5C129.061 22.46 130.141 22.94 131.485 22.94ZM146.503 26.288C145.759 26.288 145.183 26.096 144.775 25.712C144.391 25.304 144.199 24.728 144.199 23.984V10.376C144.199 9.632 144.391 9.068 144.775 8.684C145.159 8.3 145.699 8.108 146.395 8.108C147.091 8.108 147.631 8.3 148.015 8.684C148.399 9.068 148.591 9.632 148.591 10.376V12.644H148.231C148.567 11.204 149.227 10.112 150.211 9.368C151.195 8.624 152.503 8.18 154.135 8.036C154.639 7.988 155.035 8.12 155.323 8.432C155.635 8.72 155.815 9.176 155.863 9.8C155.911 10.4 155.767 10.892 155.431 11.276C155.119 11.636 154.639 11.852 153.991 11.924L153.199 11.996C151.735 12.14 150.631 12.596 149.887 13.364C149.143 14.108 148.771 15.164 148.771 16.532V23.984C148.771 24.728 148.579 25.304 148.195 25.712C147.811 26.096 147.247 26.288 146.503 26.288Z" fill="#E2355F"/>
</svg>
